HIERARCHY
ROOT Hips
{
	OFFSET -0.001795 -0.223333 0.028219
	CHANNELS 6 Xposition Yposition Zposition Zrotation Yrotation Xrotation 
	JOINT LeftUpLeg
	{
		OFFSET 0.069520 -0.091406 -0.006815
		CHANNELS 3 Zrotation Yrotation Xrotation
		JOINT LeftLeg
		{
			OFFSET 0.034277 -0.375199 -0.004496
			CHANNELS 3 Zrotation Yrotation Xrotation
			JOINT LeftFoot
			{
				OFFSET -0.013596 -0.397961 -0.043693
				CHANNELS 3 Zrotation Yrotation Xrotation
				JOINT LeftToe
				{
					OFFSET 0.026358 -0.055791 0.119288
					CHANNELS 3 Zrotation Yrotation Xrotation
					End Site
					{
						OFFSET 0.000000 0.000000 0.000000
					}
				}
			}
		}
	}
	JOINT RightUpLeg
	{
		OFFSET -0.067670 -0.090522 -0.004320
		CHANNELS 3 Zrotation Yrotation Xrotation
		JOINT RightLeg
		{
			OFFSET -0.038290 -0.382569 -0.008850
			CHANNELS 3 Zrotation Yrotation Xrotation
			JOINT RightFoot
			{
				OFFSET 0.015774 -0.398415 -0.042312
				CHANNELS 3 Zrotation Yrotation Xrotation
				JOINT RightToe
				{
					OFFSET -0.025372 -0.048144 0.123348
					CHANNELS 3 Zrotation Yrotation Xrotation
					End Site
					{
						OFFSET 0.000000 0.000000 0.000000
					}
				}
			}
		}
	}
	JOINT Spine
	{
		OFFSET -0.002533 0.108963 -0.026696
		CHANNELS 3 Zrotation Yrotation Xrotation
		JOINT Spine1
		{
			OFFSET 0.005487 0.135180 0.001092
			CHANNELS 3 Zrotation Yrotation Xrotation
			JOINT Spine2
			{
				OFFSET 0.001457 0.052922 0.025425
				CHANNELS 3 Zrotation Yrotation Xrotation
				JOINT Neck
				{
					OFFSET -0.002778 0.213870 -0.042857
					CHANNELS 3 Zrotation Yrotation Xrotation
					JOINT Head
					{
						OFFSET 0.005152 0.064970 0.051349
						CHANNELS 3 Zrotation Yrotation Xrotation
						End Site
						{
							OFFSET 0.000000 0.000000 0.000000
						}
					}
				}
				JOINT LeftShoulder
				{
					OFFSET 0.078845 0.121749 -0.034090
					CHANNELS 3 Zrotation Yrotation Xrotation
					JOINT LeftArm
					{
						OFFSET 0.090977 0.030469 -0.008868
						CHANNELS 3 Zrotation Yrotation Xrotation
						JOINT LeftForeArm
						{
							OFFSET 0.259612 -0.012772 -0.027456
							CHANNELS 3 Zrotation Yrotation Xrotation
							JOINT LeftHand
							{
								OFFSET 0.249234 0.008986 -0.001171
								CHANNELS 3 Zrotation Yrotation Xrotation
								End Site
								{
									OFFSET 0.000000 0.000000 0.000000
								}
							}
						}
					}
				}
				JOINT RightShoulder
				{
					OFFSET -0.081759 0.118833 -0.038615
					CHANNELS 3 Zrotation Yrotation Xrotation
					JOINT RightArm
					{
						OFFSET -0.096012 0.032551 -0.009143
						CHANNELS 3 Zrotation Yrotation Xrotation
						JOINT RightForeArm
						{
							OFFSET -0.253742 -0.013329 -0.021401
							CHANNELS 3 Zrotation Yrotation Xrotation
							JOINT RightHand
							{
								OFFSET -0.255298 0.007772 -0.005559
								CHANNELS 3 Zrotation Yrotation Xrotation
								End Site
								{
									OFFSET 0.000000 0.000000 0.000000
								}
							}
						}
					}
				}
			}
		}
	}
}
MOTION
Frames: 18
Frame Time: 0.050000
0.524846 0.934476 0.774854 1.327742 1.367286 1.879699 0.095496 -1.379194 -14.969016 -8.716816 1.550811 15.317281 9.526467 19.327422 -3.077608 0.000000 0.000000 0.000000 1.076096 1.398174 -13.128327 0.138870 0.460558 12.973216 -2.847628 -7.049535 -0.522942 0.000000 0.000000 0.000000 1.438088 -0.430297 7.598155 5.946162 -3.091599 2.459180 -3.054594 0.335980 6.301237 3.163108 0.259369 -24.815889 0.000000 0.000000 0.000000 -30.065635 -11.801395 4.223532 -48.820535 -5.857460 -3.385316 12.212939 -20.075040 -1.370101 0.000000 0.000000 0.000000 22.148663 15.085483 7.277700 45.951098 15.313490 0.910819 -14.789409 20.391027 -1.586620 0.000000 0.000000 0.000000 
0.528972 0.935817 0.762656 1.530133 2.668955 1.569883 0.149999 -1.360284 -14.658366 -8.383861 1.508446 18.661577 9.739025 19.608316 -3.885495 0.000000 0.000000 0.000000 0.231345 1.266622 -12.674897 0.042144 0.401576 11.426334 -2.644289 -6.979554 0.873884 0.000000 0.000000 0.000000 1.635325 -0.443273 7.486036 6.393173 -3.322681 2.269222 -2.983356 0.178709 6.337806 3.002062 0.287626 -23.667727 0.000000 0.000000 0.000000 -28.716917 -10.981906 3.472656 -49.599336 -5.487130 -3.553359 11.344712 -21.092276 -1.309043 0.000000 0.000000 0.000000 22.269002 14.439923 7.060999 44.669499 14.720332 0.573435 -15.045486 19.207080 -1.494121 0.000000 0.000000 0.000000 
0.534187 0.936696 0.752023 1.884718 3.254452 1.682096 0.093327 -1.213292 -13.033387 -7.441171 1.252401 20.415691 9.294956 18.423123 -6.146591 0.000000 0.000000 0.000000 -0.756838 1.156450 -12.495578 0.189031 0.319926 10.131466 -2.460408 -6.721016 1.539608 0.000000 0.000000 0.000000 1.494407 -0.390552 6.726194 6.214373 -3.169385 1.626673 -2.379732 -0.394936 6.790401 2.808889 0.326754 -23.638258 0.000000 0.000000 0.000000 -28.075419 -9.797477 2.906752 -49.683767 -5.123523 -3.813989 10.996992 -21.806852 -1.263482 0.000000 0.000000 0.000000 22.181809 13.775755 6.533448 44.051532 13.985894 0.288749 -14.043544 16.966408 -1.166983 0.000000 0.000000 0.000000 
0.540246 0.937046 0.742426 2.156865 3.810356 1.923173 -0.138616 -1.063223 -11.279803 -6.056936 0.820286 20.187851 8.941839 17.465963 -6.802829 0.000000 0.000000 0.000000 -1.608419 1.073986 -12.489274 0.727814 0.172260 8.957332 -2.080995 -6.227255 3.004928 0.000000 0.000000 0.000000 0.791768 -0.287010 5.667331 7.111001 -3.650086 1.813411 -2.698907 -0.197845 6.787194 3.326939 0.062836 -23.033913 0.000000 0.000000 0.000000 -27.354810 -9.320084 2.393466 -49.333746 -4.662203 -3.906339 11.076058 -22.990581 -1.385500 0.000000 0.000000 0.000000 22.744658 12.251775 5.853989 42.615074 13.069252 -0.135334 -13.722901 15.353701 -0.972286 0.000000 0.000000 0.000000 
0.547258 0.936756 0.733412 1.682506 4.285712 1.728676 0.203477 -0.821452 -9.019415 -3.416266 0.064876 19.410290 7.612785 14.032125 -8.132102 0.000000 0.000000 0.000000 -1.866854 1.026709 -12.258299 0.970194 0.081853 7.357170 -1.932764 -6.219294 4.271556 0.000000 0.000000 0.000000 0.942946 -0.287520 5.477083 7.294402 -3.702414 1.405046 -2.694960 -0.309240 7.070787 5.509213 -1.139286 -22.616278 0.000000 0.000000 0.000000 -26.663019 -9.240399 2.316428 -50.086455 -4.494303 -4.055419 14.382509 -23.464673 -2.100973 0.000000 0.000000 0.000000 22.134470 10.417716 4.776602 43.276326 12.317599 -0.401266 -14.009176 13.089095 -0.791785 0.000000 0.000000 0.000000 
0.555690 0.935257 0.724138 0.755420 4.217714 1.620339 0.652661 -0.616895 -7.038311 -1.483898 -0.388482 17.480045 6.864791 12.207375 -8.130705 0.000000 0.000000 0.000000 -1.765315 1.055011 -12.490301 1.369818 -0.003602 6.669087 -2.028137 -6.781794 5.573307 0.000000 0.000000 0.000000 0.329820 -0.233015 5.103491 7.448481 -3.812962 1.658348 -2.091832 -0.471438 7.314782 7.238564 -2.130849 -22.546878 0.000000 0.000000 0.000000 -25.866805 -8.489809 2.007601 -49.697668 -4.256656 -4.195377 14.978778 -23.591360 -2.213556 0.000000 0.000000 0.000000 22.337380 8.949959 3.818613 42.557517 12.129415 -0.467480 -13.860300 11.486162 -0.645615 0.000000 0.000000 0.000000 
0.566265 0.933515 0.714030 -0.067075 3.695232 2.218516 1.418311 -0.404796 -4.770422 -2.242860 -0.006324 11.474423 5.645347 9.730073 -6.853366 0.000000 0.000000 0.000000 -1.843493 1.124315 -13.353047 1.777268 -0.087489 5.603035 -2.046607 -7.012977 6.177195 0.000000 0.000000 0.000000 -0.328384 -0.176620 4.661658 8.198199 -4.176983 1.639582 -2.099799 -1.507069 7.426779 8.181891 -2.700639 -23.176255 0.000000 0.000000 0.000000 -24.815051 -7.581063 1.971542 -49.836945 -4.286308 -4.349905 15.232957 -23.813207 -2.197629 0.000000 0.000000 0.000000 22.513340 7.950350 2.818769 43.405367 10.929220 -0.747117 -15.968005 12.600213 -0.951628 0.000000 0.000000 0.000000 
0.578968 0.931082 0.702638 -0.465179 1.848228 3.074314 2.019870 -0.292496 -3.381047 -3.394140 0.313906 6.576907 5.880155 10.947580 -5.360426 0.000000 0.000000 0.000000 -1.896763 1.339433 -15.749385 2.129078 -0.105322 6.720778 -2.310652 -7.782881 6.364754 0.000000 0.000000 0.000000 -1.395341 -0.104533 4.452266 7.912874 -3.900743 0.875853 -1.435073 -2.972942 8.617007 9.227674 -3.337142 -24.803515 0.000000 0.000000 0.000000 -23.959210 -6.988808 2.588554 -50.575816 -4.830212 -4.544561 16.656746 -23.562034 -2.253114 0.000000 0.000000 0.000000 22.478894 7.217654 1.603385 45.025788 11.519147 -0.386156 -18.360297 13.622696 -1.382365 0.000000 0.000000 0.000000 
0.592261 0.930802 0.690701 -0.953180 -0.541659 3.364997 2.349715 -0.242104 -2.766827 -5.014817 0.575348 2.392344 5.995268 11.868537 -3.554431 0.000000 0.000000 0.000000 -1.784645 1.521199 -17.165146 1.618451 0.030530 7.621160 -2.083396 -7.758467 7.246710 0.000000 0.000000 0.000000 -2.399745 -0.046526 4.792913 7.795477 -3.796879 0.783387 -1.333066 -4.291602 8.488672 10.530146 -4.091052 -25.995332 0.000000 0.000000 0.000000 -23.744808 -6.346727 3.082701 -50.059154 -5.022279 -4.642219 15.478417 -23.132306 -1.821036 0.000000 0.000000 0.000000 23.386989 6.950231 0.488001 46.069914 11.906362 0.071556 -19.892876 16.335155 -2.091956 0.000000 0.000000 0.000000 
0.604406 0.930806 0.679804 -1.317956 -3.805414 2.931467 2.631724 -0.133387 -1.435246 -6.185989 0.735012 0.107936 6.726285 13.981668 -1.725376 0.000000 0.000000 0.000000 -1.972170 1.616241 -17.647810 1.279932 0.156371 8.479546 -2.031737 -8.053985 7.558568 0.000000 0.000000 0.000000 -3.631943 0.032760 5.497370 7.721199 -3.676854 0.325067 -1.304336 -6.214186 9.495246 10.961580 -4.586004 -27.087057 0.000000 0.000000 0.000000 -23.797208 -6.320260 4.348850 -49.847743 -6.815443 -4.320559 14.602957 -21.735417 -1.350890 0.000000 0.000000 0.000000 24.829439 8.196377 -0.260384 47.394124 12.631360 0.745753 -21.473267 18.290425 -2.889491 0.000000 0.000000 0.000000 
0.614247 0.932892 0.671332 -2.173158 -6.719197 2.347762 3.293687 -0.022274 -0.118362 -7.369077 0.854478 -2.533935 8.267720 17.437863 1.549399 0.000000 0.000000 0.000000 -0.998719 1.750660 -17.291348 2.048899 0.079251 8.868723 -2.224510 -8.901452 8.109630 0.000000 0.000000 0.000000 -4.518351 0.108279 6.753480 8.113532 -3.836607 0.396589 -0.859906 -7.875919 9.229221 11.393624 -4.976978 -28.009236 0.000000 0.000000 0.000000 -24.818695 -5.463438 5.004873 -47.985339 -8.486919 -3.914485 12.276606 -21.988372 -0.854916 0.000000 0.000000 0.000000 24.366268 7.500604 -1.852264 49.763448 12.850213 1.219904 -19.172823 21.491628 -3.322624 0.000000 0.000000 0.000000 
0.621524 0.934721 0.665673 -3.159211 -10.743253 1.753166 3.532630 0.139840 1.686631 -8.100575 0.947895 -4.761245 10.586804 21.914005 3.863998 0.000000 0.000000 0.000000 -0.733504 1.752556 -16.498067 3.659173 -0.070979 10.282479 -3.535037 -11.643145 7.463679 0.000000 0.000000 0.000000 -5.200278 0.189507 7.074857 7.785693 -3.581774 -0.319173 0.202151 -10.068170 10.276361 10.842179 -5.166608 -28.727667 0.000000 0.000000 0.000000 -25.476591 -4.921144 6.386797 -46.935066 -10.712089 -3.623207 9.089126 -22.250820 -0.191689 0.000000 0.000000 0.000000 23.124985 7.862444 -3.024472 53.211579 12.010638 1.082250 -17.423078 24.655554 -3.919936 0.000000 0.000000 0.000000 
0.626628 0.936771 0.662545 -4.103642 -14.142146 1.669847 3.552334 0.257752 2.784577 -7.612758 0.924852 -6.548488 12.602684 25.354494 6.175504 0.000000 0.000000 0.000000 -0.449520 1.802264 -16.290729 4.963051 -0.070797 14.092900 -6.616112 -17.750048 7.418899 0.000000 0.000000 0.000000 -5.128045 0.193870 6.490792 8.196767 -3.708888 -0.496092 -0.048197 -12.416229 11.210829 10.464858 -5.655704 -27.798114 0.000000 0.000000 0.000000 -25.789831 -5.260529 8.224268 -47.051818 -12.002498 -3.658806 7.726252 -25.443244 0.208840 0.000000 0.000000 0.000000 21.945343 8.078745 -4.062470 56.564124 9.402726 -0.129087 -15.005617 28.340529 -4.426351 0.000000 0.000000 0.000000 
0.629797 0.936740 0.661550 -4.444248 -19.057361 1.909798 2.662166 0.389857 3.703628 -5.935981 0.838824 -8.110742 14.415603 28.401821 7.807526 0.000000 0.000000 0.000000 0.194993 1.888864 -16.088039 6.168564 0.088378 17.869060 -7.458621 -19.056643 5.736699 0.000000 0.000000 0.000000 -4.403350 0.145889 5.457667 7.701450 -3.438553 0.007165 -0.587926 -14.146027 10.666995 10.450435 -6.271449 -25.960463 0.000000 0.000000 0.000000 -26.317833 -5.258971 9.831575 -48.011671 -14.075953 -3.165252 7.219287 -26.577169 0.420531 0.000000 0.000000 0.000000 22.726702 9.326721 -5.233838 57.733272 6.345326 -1.137263 -14.338296 28.822186 -4.813201 0.000000 0.000000 0.000000 
0.630957 0.936222 0.662149 -4.574307 -22.362233 1.754193 2.328101 0.522038 4.660101 -5.455594 0.847531 -8.742032 16.043934 31.013814 9.087437 0.000000 0.000000 0.000000 0.655332 1.746077 -14.773825 6.535044 0.384208 20.616273 -8.523654 -20.912884 5.723683 0.000000 0.000000 0.000000 -3.817862 0.096575 4.253108 7.523218 -3.350636 1.888916 -1.311588 -15.327143 9.038943 9.572528 -6.262990 -23.573353 0.000000 0.000000 0.000000 -26.727382 -6.229331 11.402232 -48.240624 -15.537011 -2.626705 7.763493 -27.976259 0.321675 0.000000 0.000000 0.000000 24.165650 9.194249 -6.843145 57.507795 2.846467 -2.171278 -14.208723 28.907745 -5.090825 0.000000 0.000000 0.000000 
0.629846 0.934607 0.664439 -4.468888 -25.619963 1.315592 1.407381 0.751048 6.232464 -4.673984 0.833071 -9.569258 18.375646 34.792700 10.453138 0.000000 0.000000 0.000000 1.339576 1.430301 -12.461003 5.745537 0.749018 20.607623 -9.061199 -21.532645 5.419749 0.000000 0.000000 0.000000 -3.249384 0.059229 3.803854 6.904875 -3.000703 1.673564 -1.309951 -16.473892 8.614644 8.895847 -6.384354 -20.900263 0.000000 0.000000 0.000000 -28.046713 -6.076021 12.798099 -48.496403 -16.797949 -2.510501 8.514931 -29.030619 0.229955 0.000000 0.000000 0.000000 25.423197 8.967796 -8.688902 56.231987 -1.282916 -3.349834 -13.640239 30.349193 -5.535974 0.000000 0.000000 0.000000 
0.626287 0.933491 0.667865 -3.948654 -27.847797 0.804018 0.623650 0.906203 7.082302 -4.272824 0.808720 -9.155377 19.136034 36.106376 10.943912 0.000000 0.000000 0.000000 1.736377 1.167429 -10.673082 5.516607 0.832028 19.746070 -8.237188 -19.607101 4.516762 0.000000 0.000000 0.000000 -2.782310 0.032956 2.486252 6.690851 -2.851360 1.944884 -1.563874 -17.553212 8.865056 8.161593 -6.225315 -20.692479 0.000000 0.000000 0.000000 -28.745911 -5.613996 13.597368 -48.070316 -18.263739 -2.270057 8.720070 -29.251593 0.206441 0.000000 0.000000 0.000000 24.858988 8.628963 -9.538093 55.840170 -3.498343 -4.249060 -13.668979 30.483878 -5.805245 0.000000 0.000000 0.000000 
0.620485 0.932234 0.671646 -3.523649 -30.428812 0.484396 0.116105 1.004571 7.471874 -3.554956 0.731449 -8.387386 20.352000 37.913598 11.944788 0.000000 0.000000 0.000000 2.256235 0.833827 -8.421045 4.290447 0.831939 16.584924 -7.487615 -17.610137 3.599116 0.000000 0.000000 0.000000 -1.930603 0.016298 1.037330 6.732560 -2.774212 2.715578 -1.922114 -17.349598 8.584843 7.066538 -5.861489 -18.601018 0.000000 0.000000 0.000000 -29.497963 -6.387183 14.803235 -48.017245 -19.252538 -2.050296 10.568047 -28.475980 -0.282168 0.000000 0.000000 0.000000 24.587699 8.144235 -9.973094 55.475296 -5.091168 -4.991871 -14.015200 30.846993 -6.059118 0.000000 0.000000 0.000000 
